<svg xmlns="http://www.w3.org/2000/svg" width="32" height="32" viewBox="0 0 32 32">
    <g fill="none" fill-rule="evenodd">
        <g>
            <g>
                <g>
                    <g>
                        <path fill="#EA4335" d="M11 4.253c2.066 0 3.459.893 4.253 1.638l3.105-3.031C16.45 1.088 13.97 0 11 0 6.698 0 2.982 2.469 1.173 6.062L4.73 8.824c.892-2.652 3.361-4.57 6.27-4.57z" transform="translate(-664.000000, -266.000000) translate(648.000000, 258.000000) translate(16.000000, 8.000000) translate(5.000000, 5.000000)"/>
                        <path fill="#4285F4" d="M21.56 11.244c0-.904-.073-1.564-.232-2.248H11v4.082h6.062c-.122 1.014-.782 2.542-2.249 3.569l3.471 2.689c2.078-1.92 3.276-4.743 3.276-8.092z" transform="translate(-664.000000, -266.000000) translate(648.000000, 258.000000) translate(16.000000, 8.000000) translate(5.000000, 5.000000)"/>
                        <path fill="#FBBC05" d="M4.742 13.176c-.232-.685-.366-1.418-.366-2.176 0-.758.134-1.491.354-2.176L1.173 6.062C.428 7.553 0 9.228 0 11c0 1.772.428 3.447 1.173 4.938l3.57-2.762z" transform="translate(-664.000000, -266.000000) translate(648.000000, 258.000000) translate(16.000000, 8.000000) translate(5.000000, 5.000000)"/>
                        <path fill="#34A853" d="M11 22c2.97 0 5.463-.978 7.284-2.664l-3.47-2.69c-.93.648-2.176 1.1-3.814 1.1-2.909 0-5.378-1.918-6.258-4.57l-3.556 2.762C2.994 19.53 6.698 22 11 22z" transform="translate(-664.000000, -266.000000) translate(648.000000, 258.000000) translate(16.000000, 8.000000) translate(5.000000, 5.000000)"/>
                        <path d="M0 0L22 0 22 22 0 22z" transform="translate(-664.000000, -266.000000) translate(648.000000, 258.000000) translate(16.000000, 8.000000) translate(5.000000, 5.000000)"/>
                    </g>
                </g>
            </g>
        </g>
    </g>
</svg>
